<?xml version="1.0" encoding="UTF-8"?>
<svg width="119px" height="119px" viewBox="0 0 119 119" version="1.1" xmlns="http://www.w3.org/2000/svg" xmlns:xlink="http://www.w3.org/1999/xlink">
    <!-- Generator: Sketch 46.2 (44496) - http://www.bohemiancoding.com/sketch -->
    <title>Slice 1</title>
    <desc>Created with Sketch.</desc>
    <defs></defs>
    <g id="Page-1" stroke="none" stroke-width="1" fill="none" fill-rule="evenodd">
        <g id="play-bg" transform="translate(1.000000, 1.000000)">
            <path d="M58.5,1.33226763e-15 C90.8086579,9.32587341e-15 117,26.1913421 117,58.5 C117,90.8086579 90.8086579,117 58.5,117 C26.1913421,117 3.99680289e-15,90.8086579 0,58.5 C-8.8817842e-15,42.9848353 6.16337516,28.1051314 17.1342533,17.1342533 C28.1051314,6.16337516 42.9848353,3.10862447e-15 58.5,1.33226763e-15 Z" id="Shape" stroke="#FFFFFF" stroke-width="2" fill-opacity="0" fill="#E5BC04" stroke-linejoin="round"></path>
            <path d="M47.635,71.23 L47.635,47.472 C47.6200254,46.9294844 47.9055925,46.4229694 48.3775272,46.1549675 C48.8494619,45.8869655 49.4307563,45.9012078 49.889,46.192 C50.789,46.709 68.735,57.154 70.267,58.047 C70.7295585,58.3103735 71.0152026,58.8017163 71.0152026,59.334 C71.0152026,59.8662837 70.7295585,60.3576265 70.267,60.621 C69.167,61.276 51.148,71.774 49.843,72.503 C49.3888938,72.7739688 48.8237628,72.7782087 48.3656421,72.5140839 C47.9075214,72.249959 47.6280302,71.7587608 47.635,71.23 L47.635,71.23 Z" id="Shape" fill="#FFFFFF"></path>
        </g>
    </g>
</svg>